<svg xmlns="http://www.w3.org/2000/svg" width="992" height="4032" viewBox="0 0 992 4032">
<rect x="0" y="0" width="992" height="4032" fill="#ffffff" />
<rect x="24" y="24" width="944" height="1328" fill="#fdfdfd" stroke="#666" stroke-width="2" />
<rect x="24" y="24" width="56" height="1328" fill="#eee" stroke="#666" stroke-width="2" />
<text x="52" y="688" font-size="20" font-weight="bold" fill="#333" text-anchor="middle" dominant-baseline="middle" transform="rotate(-90 52,688)">Usuário</text>
<rect x="24" y="1352" width="944" height="1328" fill="#fdfdfd" stroke="#666" stroke-width="2" />
<rect x="24" y="1352" width="56" height="1328" fill="#eee" stroke="#666" stroke-width="2" />
<text x="52" y="2016" font-size="20" font-weight="bold" fill="#333" text-anchor="middle" dominant-baseline="middle" transform="rotate(-90 52,2016)">Sistema</text>
<rect x="24" y="2680" width="944" height="1328" fill="#fdfdfd" stroke="#666" stroke-width="2" />
<rect x="24" y="2680" width="56" height="1328" fill="#eee" stroke="#666" stroke-width="2" />
<text x="52" y="3344" font-size="20" font-weight="bold" fill="#333" text-anchor="middle" dominant-baseline="middle" transform="rotate(-90 52,3344)">Gateway de Pagamento</text>
<circle cx="214" cy="80" r="26" fill="#e8f5e9" stroke="#2e7d32" stroke-width="2" />
<text x="214" y="44" font-size="13" fill="#333" text-anchor="middle" font-weight="bold">Iniciar checkout</text>
<rect x="104" y="208" width="220" height="64" rx="8" fill="#e3f2fd" stroke="#1565c0" stroke-width="2" />
<text x="214" y="233" font-size="13" fill="#333" text-anchor="middle" dominant-baseline="middle">Preencher dados de</text>
<text x="214" y="248" font-size="13" fill="#333" text-anchor="middle" dominant-baseline="middle">pagamento</text>
<rect x="384" y="1696" width="220" height="64" rx="8" fill="#e3f2fd" stroke="#1565c0" stroke-width="2" />
<text x="494" y="1721" font-size="13" fill="#333" text-anchor="middle" dominant-baseline="middle">Validar dados</text>
<text x="494" y="1736" font-size="13" fill="#333" text-anchor="middle" dominant-baseline="middle">informados</text>
<polygon points="494,1843 539,1888 494,1933 449,1888" fill="#fffde7" stroke="#fbc02d" stroke-width="2" />
<text x="494" y="1881" font-size="13" fill="#333" text-anchor="middle" dominant-baseline="middle">Dados</text>
<text x="494" y="1896" font-size="13" fill="#333" text-anchor="middle" dominant-baseline="middle">válidos?</text>
<rect x="664" y="3344" width="220" height="64" rx="8" fill="#e3f2fd" stroke="#1565c0" stroke-width="2" />
<text x="774" y="3369" font-size="13" fill="#333" text-anchor="middle" dominant-baseline="middle">Enviar pagamento ao</text>
<text x="774" y="3384" font-size="13" fill="#333" text-anchor="middle" dominant-baseline="middle">gateway</text>
<rect x="664" y="3504" width="220" height="64" rx="8" fill="#e3f2fd" stroke="#1565c0" stroke-width="2" />
<text x="774" y="3529" font-size="13" fill="#333" text-anchor="middle" dominant-baseline="middle">Aguardar resposta do</text>
<text x="774" y="3544" font-size="13" fill="#333" text-anchor="middle" dominant-baseline="middle">gateway</text>
<polygon points="774,3651 819,3696 774,3741 729,3696" fill="#fffde7" stroke="#fbc02d" stroke-width="2" />
<text x="774" y="3689" font-size="13" fill="#333" text-anchor="middle" dominant-baseline="middle">Pagamento</text>
<text x="774" y="3704" font-size="13" fill="#333" text-anchor="middle" dominant-baseline="middle">aprovado?</text>
<circle cx="494" cy="2528" r="26" fill="#ffebee" stroke="#c62828" stroke-width="2" />
<text x="494" y="2492" font-size="13" fill="#333" text-anchor="middle" font-weight="bold">Compra concluída com sucesso</text>
<circle cx="494" cy="2048" r="26" fill="#ffebee" stroke="#c62828" stroke-width="2" />
<text x="494" y="2012" font-size="13" fill="#333" text-anchor="middle" font-weight="bold">Falha no checkout</text>
</svg>