<svg xmlns="http://www.w3.org/2000/svg" width="1564" height="1470" viewBox="-40 -40 1564 1470">
<rect x="-40" y="-40" width="1564" height="1470" fill="#ffffff" />
<rect x="40" y="40" width="400" height="1310" fill="#fff" stroke="#444" stroke-width="1.5" />
<rect x="40" y="40" width="400" height="50" fill="#eee" stroke="#444" stroke-width="1.5" />
<text x="240" y="65" font-family="sans-serif" font-size="18" font-weight="bold" fill="#333" text-anchor="middle" dominant-baseline="middle">Usuário</text>
<rect x="452" y="40" width="580" height="1310" fill="#fff" stroke="#444" stroke-width="1.5" />
<rect x="452" y="40" width="580" height="50" fill="#eee" stroke="#444" stroke-width="1.5" />
<text x="742" y="65" font-family="sans-serif" font-size="18" font-weight="bold" fill="#333" text-anchor="middle" dominant-baseline="middle">Sistema</text>
<rect x="1044" y="40" width="400" height="1310" fill="#fff" stroke="#444" stroke-width="1.5" />
<rect x="1044" y="40" width="400" height="50" fill="#eee" stroke="#444" stroke-width="1.5" />
<text x="1244" y="65" font-family="sans-serif" font-size="18" font-weight="bold" fill="#333" text-anchor="middle" dominant-baseline="middle">Gateway de Pagamento</text>
<rect x="130" y="282" width="220" height="60" rx="8" fill="#e3f2fd" stroke="#1565c0" stroke-width="2" />
<rect x="490" y="450" width="220" height="60" rx="8" fill="#e3f2fd" stroke="#1565c0" stroke-width="2" />
<rect x="1130" y="762" width="220" height="60" rx="8" fill="#e3f2fd" stroke="#1565c0" stroke-width="2" />
<rect x="1130" y="930" width="220" height="60" rx="8" fill="#e3f2fd" stroke="#1565c0" stroke-width="2" />
<polygon points="600,608 640,648 600,688 560,648" fill="#fffde7" stroke="#fbc02d" stroke-width="2" />
<polygon points="1240,1088 1280,1128 1240,1168 1200,1128" fill="#fffde7" stroke="#fbc02d" stroke-width="2" />
<circle cx="240" cy="168" r="26" fill="#e8f5e9" stroke="#2e7d32" stroke-width="2" />
<circle cx="600" cy="1272" r="26" fill="#ffebee" stroke="#c62828" stroke-width="2" />
<circle cx="880" cy="1272" r="26" fill="#ffebee" stroke="#c62828" stroke-width="2" />
<text x="240" y="132" font-size="13" fill="#333" text-anchor="middle" font-weight="bold">Iniciar checkout</text>
<text x="240" y="305" font-size="13" font-family="sans-serif" fill="#333" text-anchor="middle" dominant-baseline="middle">Preencher dados de</text>
<text x="240" y="320" font-size="13" font-family="sans-serif" fill="#333" text-anchor="middle" dominant-baseline="middle">pagamento</text>
<text x="600" y="473" font-size="13" font-family="sans-serif" fill="#333" text-anchor="middle" dominant-baseline="middle">Validar dados</text>
<text x="600" y="488" font-size="13" font-family="sans-serif" fill="#333" text-anchor="middle" dominant-baseline="middle">informados</text>
<text x="600" y="641" font-size="13" font-family="sans-serif" fill="#333" text-anchor="middle" dominant-baseline="middle">Dados</text>
<text x="600" y="656" font-size="13" font-family="sans-serif" fill="#333" text-anchor="middle" dominant-baseline="middle">válidos?</text>
<text x="1240" y="785" font-size="13" font-family="sans-serif" fill="#333" text-anchor="middle" dominant-baseline="middle">Enviar pagamento ao</text>
<text x="1240" y="800" font-size="13" font-family="sans-serif" fill="#333" text-anchor="middle" dominant-baseline="middle">gateway</text>
<text x="1240" y="953" font-size="13" font-family="sans-serif" fill="#333" text-anchor="middle" dominant-baseline="middle">Aguardar resposta do</text>
<text x="1240" y="968" font-size="13" font-family="sans-serif" fill="#333" text-anchor="middle" dominant-baseline="middle">gateway</text>
<text x="1240" y="1121" font-size="13" font-family="sans-serif" fill="#333" text-anchor="middle" dominant-baseline="middle">Pagamento</text>
<text x="1240" y="1136" font-size="13" font-family="sans-serif" fill="#333" text-anchor="middle" dominant-baseline="middle">aprovado?</text>
<text x="600" y="1236" font-size="13" fill="#333" text-anchor="middle" font-weight="bold">Compra concluída com sucesso</text>
<text x="880" y="1236" font-size="13" fill="#333" text-anchor="middle" font-weight="bold">Falha no checkout</text>
</svg>