<svg xmlns="http://www.w3.org/2000/svg" width="1150" height="518" viewBox="0 0 1150 518">
<rect x="0" y="0" width="1150" height="518" fill="#ffffff" />
<rect x="40" y="40" width="1070" height="150" fill="#fff" stroke="#444" stroke-width="1.5" />
<rect x="40" y="40" width="50" height="150" fill="#eee" stroke="#444" stroke-width="1.5" />
<text x="65" y="115" font-family="sans-serif" font-size="18" font-weight="bold" fill="#333" text-anchor="middle" dominant-baseline="middle" transform="rotate(-90 65,115)">Usuário</text>
<rect x="40" y="198" width="1070" height="280" fill="#fff" stroke="#444" stroke-width="1.5" />
<rect x="40" y="198" width="50" height="280" fill="#eee" stroke="#444" stroke-width="1.5" />
<text x="65" y="338" font-family="sans-serif" font-size="18" font-weight="bold" fill="#333" text-anchor="middle" dominant-baseline="middle" transform="rotate(-90 65,338)">Sistema</text>
<circle cx="240.0" cy="115.0" r="26" fill="#e8f5e9" stroke="#2e7d32" stroke-width="2" />
<text x="240.0" y="79.0" font-size="13" fill="#333" text-anchor="middle" font-weight="bold">Início do Processo</text>
<rect x="310.0" y="85.0" width="220" height="60" rx="8" fill="#e3f2fd" stroke="#1565c0" stroke-width="2" />
<text x="420.0" y="115.0" font-size="13" fill="#333" text-anchor="middle" dominant-baseline="middle">Digita Dados</text>
<polygon points="600.0,368.0 640.0,408.0 600.0,448.0 560.0,408.0" fill="#fffde7" stroke="#fbc02d" stroke-width="2" />
<text x="600.0" y="401.0" font-size="13" fill="#333" text-anchor="middle" dominant-baseline="middle">Dados</text>
<text x="600.0" y="416.0" font-size="13" fill="#333" text-anchor="middle" dominant-baseline="middle">Válidos?</text>
<rect x="670.0" y="378.0" width="220" height="60" rx="8" fill="#e3f2fd" stroke="#1565c0" stroke-width="2" />
<text x="780.0" y="408.0" font-size="13" fill="#333" text-anchor="middle" dominant-baseline="middle">Processa Informação</text>
<circle cx="960.0" cy="115.0" r="26" fill="#ffebee" stroke="#c62828" stroke-width="2" />
<text x="960.0" y="115.0" font-size="13" fill="#333" text-anchor="middle" dominant-baseline="middle">Fim</text>
</svg>