<svg xmlns="http://www.w3.org/2000/svg" width="1906" height="1180" viewBox="0 0 1906 1180">
<rect x="0" y="0" width="1906" height="1180" fill="#ffffff" />
<rect x="40" y="40" width="400" height="1100" fill="#fff" stroke="#444" stroke-width="1.5" />
<rect x="40" y="40" width="400" height="50" fill="#eee" stroke="#444" stroke-width="1.5" />
<text x="240" y="65" font-family="sans-serif" font-size="18" font-weight="bold" fill="#333" text-anchor="middle" dominant-baseline="middle">Usuário</text>
<rect x="448" y="40" width="570" height="1100" fill="#fff" stroke="#444" stroke-width="1.5" />
<rect x="448" y="40" width="570" height="50" fill="#eee" stroke="#444" stroke-width="1.5" />
<text x="733" y="65" font-family="sans-serif" font-size="18" font-weight="bold" fill="#333" text-anchor="middle" dominant-baseline="middle">Sistema</text>
<rect x="1026" y="40" width="840" height="1100" fill="#fff" stroke="#444" stroke-width="1.5" />
<rect x="1026" y="40" width="840" height="50" fill="#eee" stroke="#444" stroke-width="1.5" />
<text x="1446" y="65" font-family="sans-serif" font-size="18" font-weight="bold" fill="#333" text-anchor="middle" dominant-baseline="middle">Gateway de Pagamento</text>
<circle cx="240.0" cy="160.0" r="26" fill="#e8f5e9" stroke="#2e7d32" stroke-width="2" />
<text x="240.0" y="124.0" font-size="13" fill="#333" text-anchor="middle" font-weight="bold">Iniciar checkout</text>
<rect x="130.0" y="260.0" width="220" height="60" rx="8" fill="#e3f2fd" stroke="#1565c0" stroke-width="2" />
<text x="240.0" y="283.0" font-size="13" fill="#333" text-anchor="middle" dominant-baseline="middle">Preencher dados de</text>
<text x="240.0" y="298.0" font-size="13" fill="#333" text-anchor="middle" dominant-baseline="middle">pagamento</text>
<rect x="758.0" y="390.0" width="220" height="60" rx="8" fill="#e3f2fd" stroke="#1565c0" stroke-width="2" />
<text x="868.0" y="413.0" font-size="13" fill="#333" text-anchor="middle" dominant-baseline="middle">Validar dados</text>
<text x="868.0" y="428.0" font-size="13" fill="#333" text-anchor="middle" dominant-baseline="middle">informados</text>
<polygon points="868.0,510.0 908.0,550.0 868.0,590.0 828.0,550.0" fill="#fffde7" stroke="#fbc02d" stroke-width="2" />
<text x="868.0" y="543.0" font-size="13" fill="#333" text-anchor="middle" dominant-baseline="middle">Dados</text>
<text x="868.0" y="558.0" font-size="13" fill="#333" text-anchor="middle" dominant-baseline="middle">válidos?</text>
<rect x="1606.0" y="650.0" width="220" height="60" rx="8" fill="#e3f2fd" stroke="#1565c0" stroke-width="2" />
<text x="1716.0" y="673.0" font-size="13" fill="#333" text-anchor="middle" dominant-baseline="middle">Enviar pagamento ao</text>
<text x="1716.0" y="688.0" font-size="13" fill="#333" text-anchor="middle" dominant-baseline="middle">gateway</text>
<rect x="1606.0" y="780.0" width="220" height="60" rx="8" fill="#e3f2fd" stroke="#1565c0" stroke-width="2" />
<text x="1716.0" y="803.0" font-size="13" fill="#333" text-anchor="middle" dominant-baseline="middle">Aguardar resposta do</text>
<text x="1716.0" y="818.0" font-size="13" fill="#333" text-anchor="middle" dominant-baseline="middle">gateway</text>
<polygon points="1716.0,900.0 1756.0,940.0 1716.0,980.0 1676.0,940.0" fill="#fffde7" stroke="#fbc02d" stroke-width="2" />
<text x="1716.0" y="933.0" font-size="13" fill="#333" text-anchor="middle" dominant-baseline="middle">Pagamento</text>
<text x="1716.0" y="948.0" font-size="13" fill="#333" text-anchor="middle" dominant-baseline="middle">aprovado?</text>
<circle cx="868.0" cy="1070.0" r="26" fill="#ffebee" stroke="#c62828" stroke-width="2" />
<text x="868.0" y="1034.0" font-size="13" fill="#333" text-anchor="middle" font-weight="bold">Compra concluída com sucesso</text>
<circle cx="868.0" cy="680.0" r="26" fill="#ffebee" stroke="#c62828" stroke-width="2" />
<text x="868.0" y="644.0" font-size="13" fill="#333" text-anchor="middle" font-weight="bold">Falha no checkout</text>
</svg>