<svg xmlns="http://www.w3.org/2000/svg" width="1710" height="912" viewBox="-40 -40 1710 912">
<defs>
<marker id="arrowhead" markerWidth="10" markerHeight="7" refX="9" refY="3.5" orient="auto">
<polygon points="0 0, 10 3.5, 0 7" fill="#666" />
</marker>
</defs>
<rect x="-40" y="-40" width="1710" height="912" fill="#ffffff" />
<rect x="40" y="40" width="1550" height="440" fill="#fff" stroke="#444" stroke-width="1.5" />
<rect x="40" y="40" width="50" height="440" fill="#eee" stroke="#444" stroke-width="1.5" />
<text x="65" y="260" font-family="sans-serif" font-size="18" font-weight="bold" fill="#333" text-anchor="middle" dominant-baseline="middle" transform="rotate(-90 65,260)">Usuário</text>
<rect x="40" y="492" width="1550" height="300" fill="#fff" stroke="#444" stroke-width="1.5" />
<rect x="40" y="492" width="50" height="300" fill="#eee" stroke="#444" stroke-width="1.5" />
<text x="65" y="642" font-family="sans-serif" font-size="18" font-weight="bold" fill="#333" text-anchor="middle" dominant-baseline="middle" transform="rotate(-90 65,642)">Sistema</text>
<path d="M 266 120 L 416.0 120 L 416.0 120 L 450 120" fill="none" stroke="#666" stroke-width="1.5" marker-end="url(#arrowhead)" stroke-linejoin="round" />
<path d="M 670 120 L 788 120 L 788 552 L 800 552" fill="none" stroke="#666" stroke-width="1.5" marker-end="url(#arrowhead)" stroke-linejoin="round" />
<path d="M 840 512 L 990.0 512 L 990.0 552 L 1010 552" fill="none" stroke="#666" stroke-width="1.5" marker-end="url(#arrowhead)" stroke-linejoin="round" />
<path d="M 1230 552 L 1380.0 552 L 1380.0 120 L 1414 120" fill="none" stroke="#666" stroke-width="1.5" marker-end="url(#arrowhead)" stroke-linejoin="round" />
<path d="M 840 592 L 978.0 592 L 978.0 240 L 1094 240" fill="none" stroke="#666" stroke-width="1.5" marker-end="url(#arrowhead)" stroke-linejoin="round" />
<text x="998.0" y="532.0" font-family="sans-serif" font-size="11" font-weight="bold" fill="#555" text-anchor="middle">true</text>
<text x="986.0" y="416.0" font-family="sans-serif" font-size="11" font-weight="bold" fill="#555" text-anchor="middle">false</text>
<rect x="450" y="90" width="220" height="60" rx="8" fill="#e3f2fd" stroke="#1565c0" stroke-width="2" />
<rect x="1010" y="522" width="220" height="60" rx="8" fill="#e3f2fd" stroke="#1565c0" stroke-width="2" />
<polygon points="840,512 880,552 840,592 800,552" fill="#fffde7" stroke="#fbc02d" stroke-width="2" />
<circle cx="240" cy="120" r="26" fill="#e8f5e9" stroke="#2e7d32" stroke-width="2" />
<circle cx="1440" cy="120" r="26" fill="#ffebee" stroke="#c62828" stroke-width="2" />
<circle cx="1120" cy="240" r="26" fill="#ffebee" stroke="#c62828" stroke-width="2" />
<text x="240" y="84" font-size="13" fill="#333" text-anchor="middle" font-weight="bold">Início do Processo</text>
<text x="560" y="120" font-size="13" font-family="sans-serif" fill="#333" text-anchor="middle" dominant-baseline="middle">Digita Dados</text>
<text x="840" y="545" font-size="13" font-family="sans-serif" fill="#333" text-anchor="middle" dominant-baseline="middle">Dados</text>
<text x="840" y="560" font-size="13" font-family="sans-serif" fill="#333" text-anchor="middle" dominant-baseline="middle">Válidos?</text>
<text x="1120" y="552" font-size="13" font-family="sans-serif" fill="#333" text-anchor="middle" dominant-baseline="middle">Processa Informação</text>
<text x="1440" y="120" font-size="13" font-family="sans-serif" fill="#333" text-anchor="middle" dominant-baseline="middle">Fim</text>
<text x="1120" y="240" font-size="13" font-family="sans-serif" fill="#333" text-anchor="middle" dominant-baseline="middle">Fim Falha</text>
</svg>